<svg width="34" height="32" viewBox="0 0 34 32" fill="none" xmlns="http://www.w3.org/2000/svg">
<path d="M33.9869 13.7585C33.9229 13.1561 33.6282 12.6156 33.1381 12.2206L30.0334 9.9228V4.29986H25.5001V6.56818L17.0337 0.303223L0.885089 11.667C0.405131 12.0359 0.0974356 12.5702 0.0192369 13.1703C-0.0589618 13.771 0.101402 14.3654 0.470296 14.8453C1.23302 15.8359 2.65759 16.0217 3.62601 15.2771L3.96714 15.0408V16.3991C3.29962 16.7187 2.83382 17.3953 2.83382 18.1835C2.83382 18.9717 3.29962 19.6483 3.96714 19.9679V22.0657C3.29962 22.3853 2.83382 23.0619 2.83382 23.8501C2.83382 24.6383 3.29962 25.3149 3.96714 25.6345V27.7323C3.29962 28.0519 2.83382 28.7285 2.83382 29.5167C2.83382 30.6103 3.72348 31.5 4.81712 31.5H13.0337H14.167H19.8335H20.9669H29.1834C30.277 31.5 31.1667 30.6103 31.1667 29.5167C31.1667 28.5205 30.4255 27.7011 29.4667 27.5623V25.8045C30.4255 25.6657 31.1667 24.8463 31.1667 23.8501C31.1667 22.8539 30.4255 22.0345 29.4667 21.8957V20.1379C30.4255 19.9991 31.1667 19.1797 31.1667 18.1835C31.1667 17.1873 30.4255 16.368 29.4667 16.2291V15.1485L30.3207 15.7713C30.7366 16.1033 31.2347 16.2643 31.7305 16.2643C32.3924 16.2643 33.0491 15.9764 33.4968 15.4228C33.877 14.9519 34.0515 14.3609 33.9869 13.7585ZM26.6334 5.43374H28.9001V9.08414L26.6334 7.40684V5.43374ZM13.0337 25.8334V27.5334H5.10045V25.8334H13.0337ZM5.10045 21.8668V20.1668H13.0337V21.8668H5.10045ZM4.81712 23.0001H13.0337V24.7001H4.81712C4.3485 24.7001 3.96714 24.3187 3.96714 23.8501C3.96714 23.3815 4.3485 23.0001 4.81712 23.0001ZM13.0337 30.3667H4.81712C4.3485 30.3667 3.96714 29.9853 3.96714 29.5167C3.96714 29.048 4.3485 28.6667 4.81712 28.6667H13.0337V30.3667ZM19.8335 30.3667H14.167V28.1V27.5334V25.8334V25.2667V22.4335V21.8668V20.1668H19.8335V21.8668V22.4335V25.2667V25.8334V27.5334V28.1V30.3667ZM20.9669 21.8668V20.1668H28.3334V21.8668H20.9669ZM20.9669 27.5334V25.8334H28.3334V27.5334H20.9669ZM30.0334 29.5167C30.0334 29.9853 29.652 30.3667 29.1834 30.3667H20.9669V28.6667H29.1834C29.652 28.6667 30.0334 29.048 30.0334 29.5167ZM30.0334 23.8501C30.0334 24.3187 29.652 24.7001 29.1834 24.7001H20.9669V23.0001H29.1834C29.652 23.0001 30.0334 23.3815 30.0334 23.8501ZM30.0334 18.1835C30.0334 18.6522 29.652 19.0335 29.1834 19.0335H20.9669H13.0337H4.81712C4.3485 19.0335 3.96714 18.6522 3.96714 18.1835C3.96714 17.7149 4.3485 17.3335 4.81712 17.3335H13.6003H20.4002H29.1834C29.652 17.3335 30.0334 17.7149 30.0334 18.1835ZM19.2669 16.2002H17.5669V14.5003H19.2669V16.2002ZM19.2669 13.3669H17.5669V11.667H19.2669V13.3669ZM16.4336 13.3669H14.7336V11.667H16.4336V13.3669ZM14.7336 14.5003H16.4336V16.2002H14.7336V14.5003ZM22.6668 14.5003H28.3334V16.2002H20.4002V10.5337H13.6003V16.2002H5.10045V14.5003H11.3337C11.647 14.5003 11.9003 14.247 11.9003 13.9336C11.9003 13.6202 11.647 13.3669 11.3337 13.3669H6.3811L8.83302 11.667H11.9003V10.5337H10.4678L12.9198 8.83368H20.8127L22.1704 9.8242L23.1428 10.5337H22.1007V11.667H24.696L27.0261 13.3669H22.6674C22.354 13.3669 22.1007 13.6202 22.1007 13.9336C22.1007 14.247 22.3535 14.5003 22.6668 14.5003ZM14.554 7.70037L16.9668 6.02759L19.2595 7.70037H14.554ZM32.6145 14.711C32.2224 15.1961 31.5067 15.2737 31.0205 14.8805L29.4338 13.7228L28.9488 13.3669H28.9465L26.617 11.667H26.6181L21.1816 7.70037L16.9827 4.63645L12.5645 7.70037L6.84349 11.667H6.84462L4.35756 13.3913L4.35417 13.3919L4.15357 13.533L2.95792 14.362C2.46153 14.7428 1.74867 14.6499 1.36845 14.1552C1.18372 13.9149 1.10382 13.6174 1.14292 13.3171C1.18202 13.0167 1.33615 12.7498 1.55601 12.5793L17.0173 1.70117L25.5001 7.97803L26.7451 8.89941L32.4456 13.1176C32.6808 13.3074 32.8287 13.5783 32.8599 13.8792C32.8922 14.1795 32.8049 14.4753 32.6145 14.711Z" fill="#616161"/>
</svg>
