<svg width="24" height="25" viewBox="0 0 24 25" fill="none" xmlns="http://www.w3.org/2000/svg">
<path d="M19 3.5H5C3.58579 3.5 2.87868 3.5 2.43934 3.9122C2 4.3244 2 4.98782 2 6.31466V7.00448C2 8.04232 2 8.56124 2.2596 8.99142C2.5192 9.4216 2.99347 9.68858 3.94202 10.2225L6.85504 11.8624C7.49146 12.2206 7.80967 12.3998 8.03751 12.5976C8.51199 13.0095 8.80408 13.4935 8.93644 14.0872C9 14.3722 9 14.7058 9 15.3729L9 18.0424C9 18.952 9 19.4067 9.25192 19.7613C9.50385 20.1158 9.95128 20.2907 10.8462 20.6406C12.7248 21.375 13.6641 21.7422 14.3321 21.3244C15 20.9066 15 19.9519 15 18.0424V15.3729C15 14.7058 15 14.3722 15.0636 14.0872C15.1959 13.4935 15.488 13.0095 15.9625 12.5976C16.1903 12.3998 16.5085 12.2206 17.145 11.8624L20.058 10.2225C21.0065 9.68858 21.4808 9.4216 21.7404 8.99142C22 8.56124 22 8.04232 22 7.00448V6.31466C22 4.98782 22 4.3244 21.5607 3.9122C21.1213 3.5 20.4142 3.5 19 3.5Z" stroke="#5F5F5F" stroke-width="1.5"/>
<line x1="4.5699" y1="10.3856" x2="14.5699" y2="3.38558" stroke="#5F5F5F" stroke-width="1.5"/>
</svg>
