<svg width="20" height="20" viewBox="0 0 20 20" fill="none" xmlns="http://www.w3.org/2000/svg">
<path fill-rule="evenodd" clip-rule="evenodd" d="M10.0566 2.26038C6.55117 2.26038 3.70947 5.43599 3.70947 9.00419C3.70947 12.5444 5.73525 16.3926 8.89592 17.8699C9.63272 18.2143 10.4805 18.2143 11.2173 17.8699C14.3779 16.3926 16.4037 12.5444 16.4037 9.00419C16.4037 5.43599 13.562 2.26038 10.0566 2.26038ZM10.0566 10.1943C10.9329 10.1943 11.6434 9.48385 11.6434 8.6075C11.6434 7.73114 10.9329 7.02072 10.0566 7.02072C9.18024 7.02072 8.46981 7.73114 8.46981 8.6075C8.46981 9.48385 9.18024 10.1943 10.0566 10.1943Z" fill="#161117"/>
</svg>
