<svg width="20" height="20" viewBox="0 0 20 20" fill="none" xmlns="http://www.w3.org/2000/svg">
<g clip-path="url(#clip0_43_102)">
<path fill-rule="evenodd" clip-rule="evenodd" d="M9.57985 11.2753C11.4565 11.2753 12.9835 9.74832 12.9835 7.87096C12.9835 5.99397 11.4565 4.46695 9.57985 4.46695C7.70324 4.46695 6.17472 5.99397 6.17472 7.87096C6.17435 9.74832 7.70324 11.2753 9.57985 11.2753ZM9.66018 1.45454C14.4785 1.45454 18.3999 5.37513 18.3999 10.1942C18.3999 12.4781 17.5185 14.5596 16.0788 16.1182C15.5611 14.9029 14.7218 13.8567 13.6373 13.0794C12.4446 12.2259 11.0418 11.7629 9.58134 11.741C9.57948 11.7406 9.57799 11.7406 9.57613 11.741C8.13836 11.7625 6.75489 12.2125 5.57447 13.0419C4.50228 13.7954 3.6629 14.8129 3.13108 15.9978C1.75653 14.4532 0.920497 12.4197 0.920497 10.1942C0.920497 5.37513 4.84183 1.45454 9.66018 1.45454ZM16.1034 3.75141C17.8245 5.47257 18.7721 7.76051 18.7721 10.1942C18.7721 12.628 17.8242 14.9163 16.1034 16.6371C14.3826 18.3582 12.0947 19.3058 9.66018 19.3058C7.2272 19.3058 4.93778 18.3582 3.21699 16.6371C1.49583 14.9163 0.547852 12.628 0.547852 10.1942C0.547852 7.76051 1.49583 5.47257 3.21662 3.75141C4.93778 2.03062 7.2272 1.08264 9.66018 1.08264C12.0947 1.08264 14.3826 2.03062 16.1034 3.75141Z" fill="#161117"/>
</g>
<defs>
<clipPath id="clip0_43_102">
<rect width="19.0414" height="19.0414" fill="white" transform="translate(0.139648 0.673584)"/>
</clipPath>
</defs>
</svg>
